<?xml version="1.0" encoding="UTF-8"?>
<!DOCTYPE svg PUBLIC "-//W3C//DTD SVG 1.1//EN" "http://www.w3.org/Graphics/SVG/1.1/DTD/svg11.dtd">
<!-- Creator: CorelDRAW -->
<svg xmlns="http://www.w3.org/2000/svg" xml:space="preserve" width="21cm" height="29.7cm" version="1.1" style="shape-rendering:geometricPrecision; text-rendering:geometricPrecision; image-rendering:optimizeQuality; fill-rule:evenodd; clip-rule:evenodd"
viewBox="0 0 21000 29700"
 xmlns:xlink="http://www.w3.org/1999/xlink"
 xmlns:xodm="http://www.corel.com/coreldraw/odm/2003">
 <defs>
  <style type="text/css">
   <![CDATA[
    .fil0 {fill:#3281C4;fill-rule:nonzero}
   ]]>
  </style>
 </defs>
 <g id="Layer_x0020_1">
  <metadata id="CorelCorpID_0Corel-Layer"/>
  <path class="fil0" d="M9992.35 10965.14c478.96,429.48 329.38,295.34 651.37,584.13l-105.1 -199.65c375.65,86.53 734.56,263.56 1041.47,531.24 -865.24,754.52 -2143.98,789.28 -3047.2,104.31 83.65,-242.2 -96.54,-494.76 -352.36,-494.76 -205.84,0 -372.78,166.95 -372.78,372.78 0,256.85 254.29,437.02 496.71,351.67 1067.45,839.03 2628.09,775.8 3624.33,-220.41l113.58 -113.59c-582.26,-582.29 -1192.8,-915.72 -2050.02,-915.72zm-1614.58 915.72c-21.24,239.65 -373.84,238.51 -394.36,0 -11.17,-113.91 79.76,-215.58 197.12,-215.58 117.45,0 208.39,101.88 197.24,215.58z"/>
  <path class="fil0" d="M11164.18 11863.19c0,-154.75 -234.41,-155.13 -234.41,0 0,155.14 234.41,155.14 234.41,0z"/>
  <path class="fil0" d="M11938.42 10730.62c-1067.59,-838.86 -2628.12,-775.69 -3624.34,220.52l-113.58 113.6c581.32,581.32 1191.08,915.72 2050.01,915.72 -475.89,-426.77 -332.87,-298.5 -651.36,-584.13l105.09 199.64c-375.65,-86.53 -734.54,-263.55 -1041.46,-531.23 865.24,-754.53 2143.98,-789.29 3047.2,-104.3 -83.58,242.14 96.38,494.63 352.36,494.63 205.85,0 372.67,-166.83 372.67,-372.78 0,-257.33 -254.79,-436.8 -496.59,-351.67zm123.92 549.71c-118.73,0 -208.44,-103.57 -197.24,-215.59 21.56,-246.78 395.16,-237.15 395.16,17.55 0,109.34 -88.57,198.04 -197.92,198.04z"/>
  <path class="fil0" d="M9078.7 11082.29c0,155.2 234.29,155.12 234.29,0 0,-154.84 -234.29,-155.13 -234.29,0z"/>
 </g>
</svg>
